<?xml version="1.0" encoding="UTF-8"?>
<svg id="Layer_2" data-name="Layer 2" xmlns="http://www.w3.org/2000/svg" viewBox="0 0 309.67 233.23">
  <g id="Layer_2-2" data-name="Layer 2">
    <g id="Layer_1-2" data-name="Layer 1-2">
      <g>
        <path d="M280.76,155.32c-.63.86-1.29,1.37-2.53,1.72v12.77l-14.48-.04-.03,16.5h-62.92v-16.46l16.48-.09v-74.81c-.96-.65-1.41-1.25-1.74-2.51h-14.74v-14.48h-30.98v-31.46h93.89l.05,16.49,14.48-.03-.05,12.82,1.63.27c.4.07.43,1.21.48,1.9h14.39v14.49s14.98,0,14.98,0v47.93h-14.99v14.97l-13.94.03h.02Z"/>
        <path d="M30.96,169.8l.02-12.46-2.08-2.04h-14.41v-14.99s-14.49,0-14.49,0v-47.92h14.49v-14.47l14.75-.03c.43-1.24.81-1.82,1.71-2.57v-12.41l14.98.02.04-16.49h62.42v16.47l-16.49.03.02,29.46-14.5-.02v47.94l30.96-.03.02,15h31.47v30.96H45.97l-.05-16.49-14.96.02v.02Z"/>
        <path d="M169.84,201.23l-14.98.04-.03-62.44h-31.43l-.06-14.99h-29.49l.04-14.96,14.49-.05v-30.93h14.99s0-14.99,0-14.99l16.49.02v-31.45h14.98V0h14.99v31.45l-15,.06.02,60.28c.82.64,1.35,1.36,1.64,2.6l29.79-.04.03,14.5h14.48v46.44h-14.49v30.94l-16.47.04v14.96Z"/>
        <rect x="140.43" y="201.78" width="14.99" height="31.45"/>
      </g>
    </g>
  </g>
</svg>