<?xml version="1.0" encoding="UTF-8"?>
<svg id="Layer_2" data-name="Layer 2" xmlns="http://www.w3.org/2000/svg" xmlns:xlink="http://www.w3.org/1999/xlink" viewBox="0 0 66.36 49.21">
  <defs>
    <style>
      .cls-1 {
        fill: url(#linear-gradient-2);
      }

      .cls-2 {
        fill: #ffd400;
      }

      .cls-3 {
        fill: url(#linear-gradient);
      }

      .cls-4 {
        fill: #fff;
      }
    </style>
    <linearGradient id="linear-gradient" x1="37.22" y1="28.53" x2="26.36" y2="47.39" gradientUnits="userSpaceOnUse">
      <stop offset="0" stop-color="#f58220"/>
      <stop offset=".04" stop-color="#f58a1d"/>
      <stop offset=".23" stop-color="#f9aa11"/>
      <stop offset=".41" stop-color="#fbc108"/>
      <stop offset=".58" stop-color="#fdcf03"/>
      <stop offset=".73" stop-color="#fed402"/>
    </linearGradient>
    <linearGradient id="linear-gradient-2" x1="27.94" y1="22.72" x2="35.33" y2="9.92" gradientUnits="userSpaceOnUse">
      <stop offset=".03" stop-color="#f58220"/>
      <stop offset="1" stop-color="#fed402"/>
    </linearGradient>
  </defs>
  <g id="Layer_1-2" data-name="Layer 1">
    <path class="cls-4" d="M30.24,33c.1-.64-.22-1.29-.79-1.6-.09-.05-.17-.08-.25-.11l-6.7-2.24c-1.34-.45-2.42-1.39-3.05-2.66-.63-1.27-.73-2.7-.28-4.04.15-.45.34-.86.56-1.25l.11-.2,5.96-10.58h-11.51C6.39,10.32,0,16.72,0,24.6h0c0,7.89,6.39,14.28,14.28,14.28h15.08l.88-5.89Z"/>
    <g>
      <path class="cls-3" d="M37.82,38.01l-6.17,10.95c-.26.46-.97.22-.89-.3l2.28-15.24c.27-1.84-.64-3.63-2.23-4.5.12.05.24.12.36.17,1.95,1.01,7.06,3.47,6.65,8.91Z"/>
      <path class="cls-1" d="M33.32,15.79c-.28,1.84.64,3.62,2.22,4.49-.12-.05-.23-.11-.35-.17-1.95-1.01-7.06-3.47-6.65-8.91L34.71.25c.26-.46.97-.22.89.3l-2.28,15.24Z"/>
      <path class="cls-2" d="M44.52,25.96c-.02.06-.04.13-.07.19-.08.19-.16.38-.26.56l-.11.2-.27.47-2.04,3.61-3.95,7.02c.41-5.44-4.69-7.9-6.65-8.91-.12-.06-.24-.12-.36-.17-.22-.12-.46-.23-.71-.31l-4.79-1.6-.12-.04-1.79-.6c-1.29-.43-1.98-1.83-1.55-3.12.09-.26.2-.51.34-.76l.11-.2,2.3-4.08h0l.72-1.28,3.23-5.74c-.41,5.44,4.7,7.9,6.65,8.91.12.06.23.12.35.17,0,0,0,0,.01,0,.22.12.46.23.71.31l6.7,2.24c1.29.43,1.98,1.83,1.55,3.12Z"/>
    </g>
    <path class="cls-4" d="M52.07,10.32h-15.08l-.88,5.89s0,.06,0,.09c-.01.12-.01.24,0,.36,0,.05.03.1.04.15.02.1.05.19.09.28.02.05.05.09.08.14.05.08.1.16.16.23.04.04.08.08.13.12.04.04.08.08.12.12l.05.02s.07.07.12.09c.09.05.17.08.25.11h.03s0,.01,0,.01l6.67,2.23c1.34.45,2.42,1.39,3.05,2.65.63,1.27.73,2.7.28,4.04,0,.01,0,.02-.01.03-.05.15-.11.28-.17.42-.1.24-.21.48-.33.7-.02.03-.03.06-.05.09l-.11.2-5.96,10.58h11.51c7.89,0,14.28-6.39,14.28-14.28s-6.39-14.28-14.28-14.28Z"/>
  </g>
</svg>