<?xml version="1.0" encoding="UTF-8"?>
<svg id="Layer_2" xmlns="http://www.w3.org/2000/svg" xmlns:xlink="http://www.w3.org/1999/xlink" version="1.1" viewBox="0 0 66.4 49.2">
  <!-- Generator: Adobe Illustrator 30.4.0, SVG Export Plug-In . SVG Version: 2.1.4 Build 226)  -->
  <defs>
    <style>
      .st0 {
        fill: url(#linear-gradient1);
      }

      .st1 {
        fill: #ffd400;
      }

      .st2 {
        fill: #1c1c1c;
      }

      .st3 {
        fill: url(#linear-gradient);
      }
    </style>
    <linearGradient id="linear-gradient" x1="37.2" y1="-1004.5" x2="26.4" y2="-1023.4" gradientTransform="translate(0 -976) scale(1 -1)" gradientUnits="userSpaceOnUse">
      <stop offset="0" stop-color="#f58220"/>
      <stop offset="0" stop-color="#f58a1d"/>
      <stop offset=".2" stop-color="#f9aa11"/>
      <stop offset=".4" stop-color="#fbc108"/>
      <stop offset=".6" stop-color="#fdcf03"/>
      <stop offset=".7" stop-color="#fed402"/>
    </linearGradient>
    <linearGradient id="linear-gradient1" x1="27.9" y1="-998.7" x2="35.3" y2="-985.9" gradientTransform="translate(0 -976) scale(1 -1)" gradientUnits="userSpaceOnUse">
      <stop offset="0" stop-color="#f58220"/>
      <stop offset="1" stop-color="#fed402"/>
    </linearGradient>
  </defs>
  <g id="Layer_1-2">
    <path class="st2" d="M30.2,33c.1-.6-.2-1.3-.8-1.6,0,0-.2,0-.2-.1l-6.7-2.2c-1.3-.5-2.4-1.4-3-2.7s-.7-2.7-.3-4c.1-.5.3-.9.6-1.2v-.2c.1,0,6.1-10.6,6.1-10.6h-11.5c-7.9,0-14.3,6.4-14.3,14.3H.1c0,7.9,6.4,14.3,14.3,14.3h15.1l.9-5.9h-.2,0Z"/>
    <g>
      <path class="st3" d="M37.8,38l-6.2,11c-.3.5-1,.2-.9-.3l2.3-15.2c.3-1.8-.6-3.6-2.2-4.5.1,0,.2.1.4.2,2,1,7.1,3.5,6.7,8.9h0Z"/>
      <path class="st0" d="M33.3,15.8c-.3,1.8.6,3.6,2.2,4.5,0,0-.2-.1-.3-.2-2-1-7.1-3.5-6.6-8.9L34.7.2c.3-.5,1-.2.9.3l-2.3,15.2h0Z"/>
      <path class="st1" d="M44.5,26v.2c0,.2-.2.4-.3.6v.2l-.4.5-2,3.6-4,7c.4-5.4-4.7-7.9-6.6-8.9-.1,0-.2-.1-.4-.2-.2-.1-.5-.2-.7-.3l-4.8-1.6h-.1l-1.8-.6c-1.3-.4-2-1.8-1.5-3.1,0-.3.2-.5.3-.8v-.2c.1,0,2.4-4.1,2.4-4.1h0l.7-1.3,3.2-5.7c-.4,5.4,4.7,7.9,6.6,8.9,0,0,.2.1.3.2h0c.2.1.5.2.7.3l6.7,2.2c1.3.4,2,1.8,1.5,3.1,0,0,.2,0,.2,0Z"/>
    </g>
    <path class="st2" d="M52.1,10.3h-15.1l-.9,5.9h0v.5h0v.4h0c0,.1,0,.3.2.3h0v.2h0c0,.1.2.1.2.2h0l6.7,2.2c1.3.5,2.4,1.4,3,2.6.6,1.3.7,2.7.3,4h0c0,.1,0,.3-.2.4,0,.2-.2.5-.3.7h0v.2l-6.1,10.6h11.5c7.9,0,14.3-6.4,14.3-14.3s-6.4-14.3-14.3-14.3h0l.4.4h.3Z"/>
  </g>
</svg>