<?xml version="1.0" encoding="UTF-8"?>
<svg id="Layer_2" data-name="Layer 2" xmlns="http://www.w3.org/2000/svg" viewBox="0 0 309.69 233.23">
  <defs>
    <style>
      .cls-1 {
        fill: #ffdc06;
      }
    </style>
  </defs>
  <g id="Layer_1-2" data-name="Layer 1">
    <g>
      <path d="M280.76,155.32c-.63.86-1.29,1.37-2.53,1.72v12.77s-14.48-.04-14.48-.04l-.03,16.5h-62.92s0-16.46,0-16.46l16.48-.09v-74.81c-.96-.65-1.41-1.25-1.74-2.51h-14.74s0-14.48,0-14.48h-30.98s0-31.46,0-31.46h93.89s.05,16.49.05,16.49l14.48-.03-.05,12.82,1.63.27c.4.07.43,1.21.48,1.9h14.39s-.01,14.49-.01,14.49h14.99s0,47.93,0,47.93h-14.99s0,14.97,0,14.97l-13.94.03Z"/>
      <path d="M30.96,169.8l.02-12.46-2.08-2.04h-14.41s.01-14.99.01-14.99H0s0-47.92,0-47.92h14.49s0-14.47,0-14.47l14.75-.03c.43-1.24.81-1.82,1.71-2.57v-12.41s14.98.02,14.98.02l.04-16.49h62.42s0,16.47,0,16.47l-16.49.03.02,29.46-14.5-.02v47.94s30.96-.03,30.96-.03l.02,15h31.47s0,30.96,0,30.96H45.97s-.05-16.49-.05-16.49l-14.96.02Z"/>
      <path class="cls-1" d="M169.84,201.23l-14.98.04-.03-62.44h-31.43s-.06-14.99-.06-14.99h-29.49s.04-14.96.04-14.96l14.49-.05v-30.93s14.99.01,14.99.01v-15s16.49.02,16.49.02v-31.45s14.98-.01,14.98-.01V0s14.99.01,14.99.01v31.44s-15,.06-15,.06l.02,60.28c.82.64,1.35,1.36,1.64,2.6l29.79-.04.03,14.5h14.48s0,46.44,0,46.44h-14.49s0,30.94,0,30.94l-16.47.04v14.94Z"/>
      <rect class="cls-1" x="140.43" y="201.78" width="14.99" height="31.45"/>
    </g>
  </g>
</svg>